<svg xmlns="http://www.w3.org/2000/svg" aria-hidden="true" role="img"
     class="iconify iconify--logos" width="35.93" height="32" preserveAspectRatio="xMidYMid meet" viewBox="0 0 256 228">
  <path fill="#00D8FF"
        d="M210.483 73.824a171.49 171.49 0 0 0-8.24-2.597c.465-1.9.893-3.777 1.273-5.621c6.238-30.281 2.16-54.676-11.769-62.708c-13.355-7.7-35.196.329-57.254 19.526a171.23 171.23 0 0 0-6.375 5.848a155.866 155.866 0 0 0-4.241-3.917C100.759 3.829 77.587-4.822 63.673 3.233C50.33 10.957 46.379 33.89 51.995 62.588a170.974 170.974 0 0 0 1.892 8.48c-3.28.932-6.445 1.924-9.474 2.98C17.309 83.498 0 98.307 0 113.668c0 15.865 18.582 31.778 46.812 41.427a145.52 145.52 0 0 0 6.921 2.165a167.467 167.467 0 0 0-2.01 9.138c-5.354 28.2-1.173 50.591 12.134 58.266c13.744 7.926 36.812-.22 59.273-19.855a145.567 145.567 0 0 0 5.342-4.923a168.064 168.064 0 0 0 6.92 6.314c21.758 18.722 43.246 26.282 56.54 18.586c13.731-7.949 18.194-32.003 12.4-61.268a145.016 145.016 0 0 0-1.535-6.842c1.62-.48 3.21-.974 4.76-1.488c29.348-9.723 48.443-25.443 48.443-41.52c0-15.417-17.868-30.326-45.517-39.844Zm-6.365 70.984c-1.4.463-2.836.91-4.3 1.345c-3.24-10.257-7.612-21.163-12.963-32.432c5.106-11 9.31-21.767 12.459-31.957c2.619.758 5.16 1.557 7.61 2.4c23.69 8.156 38.14 20.213 38.14 29.504c0 9.896-15.606 22.743-40.946 31.14Zm-10.514 20.834c2.562 12.94 2.927 24.64 1.23 33.787c-1.524 8.219-4.59 13.698-8.382 15.893c-8.067 4.67-25.32-1.4-43.927-17.412a156.726 156.726 0 0 1-6.437-5.87c7.214-7.889 14.423-17.06 21.459-27.246c12.376-1.098 24.068-2.894 34.671-5.345a134.17 134.17 0 0 1 1.386 6.193ZM87.276 214.515c-7.882 2.783-14.16 2.863-17.955.695c-7.045-4.11-10.399-19.906-5.533-45.24c.942-4.97 2.092-10.108 3.47-15.374c10.538 1.99 22.168 3.389 34.673 4.158c7.186 10.155 14.809 19.325 22.72 28.24c-2.868 3.044-5.709 5.94-8.49 8.64c-9.55 9.267-21.172 17.748-33.885 24.881Zm36.955-54.48c-10.696-1.054-20.779-2.79-30.012-5.22c5.62-14.645 12.686-28.3 21.053-40.486c8.371 12.182 15.438 25.835 21.058 40.476c-4.003.764-8.073 1.431-12.099 2.23ZM128.658 90.668c-5.475-10.082-11.5-19.4-17.935-27.74c8.754-1.205 17.857-1.843 27.166-1.843c9.424 0 18.68.665 27.636 1.932c-6.41 8.4-12.436 17.774-17.896 27.98c-6.489-.555-13.13-.834-19.97-.834c-6.74 0-13.32.27-19.86.8l-.04.705Zm-24.806 6.854c-8.636 11.841-15.83 24.478-21.472 37.537c-8.29-1.469-15.934-3.416-22.886-5.821c5.267-15.393 12.344-29.619 21.135-42.258c7.834 3.766 15.97 7.249 24.37 10.42a220.183 220.183 0 0 1-.848 1.122Zm24.806 25.335c.656 9.45 1.879 18.65 3.64 27.478c-9.27.672-18.84.672-28.14 0c1.754-8.82 2.97-18.022 3.624-27.48c3.535.268 7.114.402 10.734.402c3.62 0 7.199-.134 10.734-.402a187.55 187.55 0 0 1 .408 1.002Zm6.879-43.017c7.24 3.026 14.536 6.526 21.859 10.512c8.627 12.068 15.765 26.009 21.217 41.354c-6.954 2.416-14.598 4.356-22.89 5.829c-5.643-13.06-12.837-25.697-21.475-37.541c.284-.373.565-.746.84-1.13a186.527 186.527 0 0 0-.55 1.975Zm42.347 3.859c5.683 1.555 11.082 3.33 16.178 5.316c1.84-15.152 1.568-29.574-.825-42.105c-2.86-15.391-8.733-26.373-16.392-30.836c-13.379-7.72-35.711.315-58.294 19.726a157.368 157.368 0 0 0-5.508 5.093c8.918 10.351 16.942 21.698 23.935 33.871a204.032 204.032 0 0 1 20.558 3.79c1.987.46 3.94.938 5.85 1.431a171.624 171.624 0 0 0-13.48.246c2.355 5.1 4.481 10.323 6.353 15.665c5.904-.368 11.566-.854 16.97-1.435c.96 2.017 1.884 4.051 2.775 6.105c-.834 1.77-1.691 3.537-2.592 5.284Zm9.318-12.718c-2.226-5.188-4.69-10.27-7.38-15.235c2.068-.456 4.093-.903 6.067-1.335a173.767 173.767 0 0 1 1.9 8.51c.614 3.275 1.018 6.633 1.176 10.06a202.43 202.43 0 0 1-1.763-2Z"/>
</svg>
